<svg class="dg" viewBox="0 0 900 230" role="img" aria-label="관계의 종류">
  <defs><style>.nd{fill:var(--card);stroke:var(--fg);stroke-width:1.5}.ln{stroke:#7048e8;stroke-width:2.2}</style></defs>
  <text class="t" x="150" y="24" text-anchor="middle">1 대 1</text>
  <rect class="nd" x="40" y="50" width="90" height="34" rx="8"/><text x="85" y="72" text-anchor="middle">사원 A</text>
  <rect class="nd" x="40" y="110" width="90" height="34" rx="8"/><text x="85" y="132" text-anchor="middle">사원 B</text>
  <rect class="nd" x="170" y="50" width="90" height="34" rx="8"/><text x="215" y="72" text-anchor="middle">사원증 1</text>
  <rect class="nd" x="170" y="110" width="90" height="34" rx="8"/><text x="215" y="132" text-anchor="middle">사원증 2</text>
  <path class="ln" d="M130 67H170M130 127H170"/>
  <text class="s" x="150" y="180" text-anchor="middle">서로 딱 하나씩</text>

  <text class="t" x="450" y="24" text-anchor="middle">1 대 다</text>
  <rect class="nd" x="330" y="90" width="100" height="34" rx="8"/><text x="380" y="112" text-anchor="middle">카테고리 「면」</text>
  <rect class="nd" x="480" y="40" width="90" height="34" rx="8"/><text x="525" y="62" text-anchor="middle">ラーメン</text>
  <rect class="nd" x="480" y="90" width="90" height="34" rx="8"/><text x="525" y="112" text-anchor="middle">つけ麺</text>
  <rect class="nd" x="480" y="140" width="90" height="34" rx="8"/><text x="525" y="162" text-anchor="middle">油そば</text>
  <path class="ln" d="M430 107L480 57M430 107H480M430 107L480 157"/>
  <text class="s" x="450" y="210" text-anchor="middle">카테고리 하나에 메뉴 여러 개 (메뉴는 카테고리 하나에만)</text>

  <text class="t" x="750" y="24" text-anchor="middle">다 대 다</text>
  <rect class="nd" x="640" y="60" width="90" height="34" rx="8"/><text x="685" y="82" text-anchor="middle">ラーメン</text>
  <rect class="nd" x="640" y="120" width="90" height="34" rx="8"/><text x="685" y="142" text-anchor="middle">つけ麺</text>
  <rect class="nd" x="780" y="60" width="100" height="34" rx="8"/><text x="830" y="82" text-anchor="middle">ライス</text>
  <rect class="nd" x="780" y="120" width="100" height="34" rx="8"/><text x="830" y="142" text-anchor="middle">チャーシュー</text>
  <path class="ln" d="M730 77H780M730 77L780 137M730 137L780 77"/>
  <text class="s" x="760" y="190" text-anchor="middle">양쪽 모두 여러 개와 이어짐</text>
</svg>